<svg width="27" height="12" viewBox="0 0 27 12" fill="none" xmlns="http://www.w3.org/2000/svg">
<path d="M25.75 6.27298C26.1642 6.27298 26.5 5.93719 26.5 5.52298C26.5 5.10877 26.1642 4.77298 25.75 4.77298L25.75 6.27298ZM0.219669 4.99265C-0.0732231 5.28555 -0.0732231 5.76042 0.219669 6.05331L4.99264 10.8263C5.28553 11.1192 5.76041 11.1192 6.0533 10.8263C6.34619 10.5334 6.34619 10.0585 6.0533 9.76562L1.81066 5.52298L6.0533 1.28034C6.34619 0.987448 6.34619 0.512574 6.0533 0.219681C5.76041 -0.0732128 5.28553 -0.0732127 4.99264 0.219681L0.219669 4.99265ZM25.75 4.77298L0.75 4.77298L0.75 6.27298L25.75 6.27298L25.75 4.77298Z" fill="#333333"/>
</svg>
